<svg width="179" height="26" viewBox="0 0 179 26" fill="none" xmlns="http://www.w3.org/2000/svg"><path d="M59.4451 7.86035H55.8203V24.9891H59.4451V7.86035Z" fill="white"></path><path d="M42.6655 24.9797H32.9648V7.78516H42.6655C47.4924 7.78516 51.4177 11.3349 51.4177 15.6922V17.0444C51.4271 21.4393 47.4924 24.9797 42.6655 24.9797ZM36.5897 21.3548H42.6655C45.4828 21.3548 47.7929 19.4767 47.7929 17.082V15.7297C47.7929 13.3727 45.4922 11.457 42.6655 11.457H36.5897V21.3548Z" fill="white"></path><path d="M83.2064 24.9802H73.2522C68.4253 24.9802 64.5 21.4399 64.5 17.0826V15.7303C64.5 11.373 68.4253 7.82324 73.2522 7.82324H83.2064V11.4575H73.2522C70.435 11.4575 68.1248 13.3356 68.1248 15.7303V17.0826C68.1248 19.4396 70.4256 21.3554 73.2522 21.3554H83.2064V24.9802Z" stroke="white" stroke-width="1.2" stroke-miterlimit="10"></path><path d="M105.18 24.9802H94.5218C90.9627 24.9802 88.0703 22.3414 88.0703 19.0922V7.82324H91.6952V19.0922C91.7777 19.7619 92.1182 20.3731 92.6443 20.7957C93.1704 21.2183 93.8406 21.4191 94.5124 21.3554H105.171L105.18 24.9802Z" stroke="white" stroke-width="1.2" stroke-miterlimit="10"></path><path d="M121.36 25.1022H117.81C115.509 25.1022 113.302 24.188 111.674 22.5607C110.047 20.9335 109.133 18.7264 109.133 16.4251C109.133 14.1238 110.047 11.9168 111.674 10.2895C113.302 8.66223 115.509 7.74805 117.81 7.74805H121.36C123.661 7.74805 125.868 8.66223 127.495 10.2895C129.122 11.9168 130.037 14.1238 130.037 16.4251C130.037 18.7264 129.122 20.9335 127.495 22.5607C125.868 24.188 123.661 25.1022 121.36 25.1022ZM117.81 11.3729C116.47 11.3729 115.185 11.9052 114.237 12.8526C113.29 13.8001 112.758 15.0852 112.758 16.4251C112.758 17.7651 113.29 19.0501 114.237 19.9976C115.185 20.9451 116.47 21.4773 117.81 21.4773H121.36C122.7 21.4773 123.985 20.9451 124.932 19.9976C125.88 19.0501 126.412 17.7651 126.412 16.4251C126.412 15.0852 125.88 13.8001 124.932 12.8526C123.985 11.9052 122.7 11.3729 121.36 11.3729H117.81Z" stroke="white" stroke-width="1.2" stroke-miterlimit="10"></path><path d="M136.826 24.5386L142.179 12.6968C142.371 12.4062 142.631 12.1678 142.938 12.0027C143.244 11.8377 143.587 11.7513 143.935 11.7513C144.283 11.7513 144.626 11.8377 144.932 12.0027C145.239 12.1678 145.499 12.4062 145.691 12.6968L151.513 24.5762H155.542L148.968 11.1098C148.472 10.2001 147.737 9.44301 146.842 8.91993C145.947 8.39685 144.927 8.12759 143.891 8.14111C142.854 8.15463 141.841 8.45042 140.961 8.99666C140.08 9.54291 139.365 10.3189 138.892 11.2413L132.863 24.5762L136.826 24.5386Z" stroke="white" stroke-width="1.2" stroke-miterlimit="10"></path><path d="M173.359 11.7579L177.895 8.32085C177.94 8.2891 177.973 8.24365 177.99 8.19134C178.007 8.13903 178.006 8.08269 177.988 8.03079C177.97 7.9789 177.935 7.93424 177.89 7.90357C177.844 7.87289 177.79 7.85785 177.735 7.86069H173.115C172.828 7.86325 172.549 7.95516 172.317 8.12363C172.317 8.12363 166.992 12.5091 164.804 14.4718C164.749 14.5231 164.681 14.5572 164.607 14.57C164.533 14.5827 164.456 14.5736 164.388 14.5436C164.319 14.5137 164.26 14.4643 164.219 14.4015C164.178 14.3386 164.156 14.2652 164.156 14.1901V7.86069H160.531V24.9895H164.156V19.8809C164.155 19.8086 164.175 19.7375 164.212 19.6758C164.25 19.614 164.304 19.5641 164.369 19.5317C164.434 19.4994 164.506 19.4859 164.578 19.4929C164.65 19.4998 164.719 19.5269 164.776 19.571L171.659 24.8768C171.888 25.0534 172.169 25.1492 172.458 25.1491H177.153C177.207 25.1498 177.26 25.1332 177.304 25.1018C177.348 25.0703 177.38 25.0257 177.397 24.9743C177.414 24.9229 177.414 24.8675 177.397 24.8162C177.38 24.7649 177.347 24.7203 177.303 24.689L168.25 17.8243C168.064 17.7055 167.911 17.5416 167.805 17.348C167.699 17.1543 167.643 16.937 167.643 16.7162C167.643 16.4954 167.699 16.2781 167.805 16.0844C167.911 15.8907 168.064 15.7269 168.25 15.6081L173.359 11.7579Z" stroke="white" stroke-width="1.2" stroke-miterlimit="10"></path><path d="M22.2034 9.80105L15.0053 2.60298C13.5677 1.16539 11.2369 1.1654 9.79935 2.60299L2.60129 9.80106C1.1637 11.2386 1.16368 13.5694 2.60127 15.007L9.79933 22.2051C11.2369 23.6427 13.5677 23.6427 15.0053 22.2051L22.2034 15.007C23.641 13.5694 23.641 11.2386 22.2034 9.80105Z" fill="#15E7B0"></path><path d="M23.5757 24.1352L12.8233 13.4203C12.7144 13.313 12.5676 13.2529 12.4148 13.2529C12.2619 13.2529 12.1152 13.313 12.0063 13.4203L1.23507 24.1915C1.16297 24.2777 1.11781 24.3831 1.10519 24.4948C1.09257 24.6064 1.11307 24.7193 1.16411 24.8194C1.21515 24.9195 1.29448 25.0023 1.39226 25.0576C1.49003 25.113 1.60193 25.1384 1.71401 25.1306C8.81072 24.2411 15.9907 24.2411 23.0874 25.1306C23.2094 25.1485 23.334 25.1271 23.4431 25.0697C23.5522 25.0122 23.6402 24.9216 23.6946 24.8109C23.7489 24.7002 23.7666 24.5751 23.7453 24.4537C23.7239 24.3322 23.6646 24.2207 23.5757 24.1352Z" fill="#15E7B0"></path><path d="M7.74381 11.3164C7.66545 11.9752 7.72758 12.6431 7.9261 13.2761C8.12463 13.9091 8.45503 14.4929 8.89556 14.9889C9.33609 15.4849 9.87675 15.882 10.4819 16.1539C11.087 16.4258 11.7429 16.5664 12.4063 16.5664C13.0697 16.5664 13.7256 16.4258 14.3308 16.1539C14.9359 15.882 15.4765 15.4849 15.9171 14.9889C16.3576 14.4929 16.688 13.9091 16.8865 13.2761C17.0851 12.6431 17.1472 11.9752 17.0688 11.3164H7.74381Z" fill="#111111"></path></svg>
